# xmcd
# 
# Track frame offsets:
#     150
#     37500
#     53460
#     72640
#     100305
#     114325
#     157322
#     210002
#     246152
#     278847
#     308462
# 
# Disc length: 4667
# 
# Revision: 1
# Processed by: cddbd v1.5.2PL0 Copyright (c) Steve Scherf et al.
# Submitted via: BonkEnc v1.0.8
# 
DISCID=8712390b
DTITLE=John Lewis - West Coast East Coast Encounter
DYEAR=1956
DGENRE=Jazz
TTITLE0=Love Me Or Leave Me
TTITLE1=I Can't Get Started
TTITLE2=Easy Living
TTITLE3=2 Degrees East - 3 Degrees West
TTITLE4=Skylark
TTITLE5=Almost Like Being In Love
TTITLE6=Tour De Force
TTITLE7=Dizzy Meets Sonny
TTITLE8=Ballad Melody
TTITLE9=Mean To Me
TTITLE10=Blues For Bird
EXTD=
EXTT0=
EXTT1=
EXTT2=
EXTT3=
EXTT4=
EXTT5=
EXTT6=
EXTT7=
EXTT8=
EXTT9=
EXTT10=
PLAYORDER=
